<?xml version="1.0" encoding="UTF-8"?> <!-- Generator: Adobe Illustrator 22.0.1, SVG Export Plug-In . SVG Version: 6.00 Build 0) --> <svg xmlns="http://www.w3.org/2000/svg" xmlns:xlink="http://www.w3.org/1999/xlink" id="CA_A_Broadcom_Company" x="0px" y="0px" viewBox="0 0 576 238.3" style="enable-background:new 0 0 576 238.3;" xml:space="preserve"> <style type="text/css"> .st0{fill:#CC092F;} </style> <g> <g> <path class="st0" d="M267.3,72.1h3.5l15.1,34.7h-4l-3.9-9.1h-18l-3.9,9.1h-3.8L267.3,72.1z M276.6,94.3L269,76.7l-7.6,17.6H276.6z "></path> <path class="st0" d="M305.3,72.4h14.8c3.8,0,6.8,1.1,8.7,3.1c1.5,1.5,2.2,3.4,2.2,5.7v0.1c0,4.1-2.3,6.4-4.7,7.7 c3.9,1.4,6.6,3.7,6.6,8.4v0.1c0,6.2-4.9,9.5-12.2,9.5h-15.3V72.4z M325.2,82.1c0-2.7-2.1-4.4-5.8-4.4H311v9.2h7.9 C322.7,86.9,325.2,85.4,325.2,82.1L325.2,82.1z M320.2,92H311v9.5h9.6c3.9,0,6.4-1.6,6.4-4.7v-0.1C327,93.8,324.8,92,320.2,92z"></path> <path class="st0" d="M338.2,80.9h5.8v5.9c1.6-3.9,4.4-6.6,8.8-6.4v6.3h-0.3c-5,0-8.5,3.4-8.5,10.3v9.9h-5.8V80.9z"></path> <path class="st0" d="M355.1,94L355.1,94c0-7.5,5.7-13.7,13.3-13.7c7.7,0,13.3,6.1,13.3,13.5v0.1c0,7.4-5.7,13.5-13.4,13.5 C360.7,107.5,355.1,101.4,355.1,94z M376,94L376,94c0-4.7-3.2-8.5-7.7-8.5c-4.6,0-7.5,3.7-7.5,8.3v0.1c0,4.5,3.2,8.3,7.6,8.3 C373.1,102.2,376,98.5,376,94z"></path> <path class="st0" d="M385.4,99.4L385.4,99.4c0-5.7,4.3-8.5,10.4-8.5c2.8,0,4.8,0.4,6.7,1.1v-0.6c0-3.7-2.2-5.7-6.2-5.7 c-2.8,0-4.9,0.6-7.1,1.6l-1.6-4.7c2.8-1.3,5.5-2.1,9.5-2.1c3.7,0,6.5,1,8.3,2.9c1.8,1.9,2.7,4.6,2.7,8v15.4h-5.6v-3.3 c-1.7,2.1-4.3,3.8-8.1,3.8C389.6,107.4,385.4,104.6,385.4,99.4z M402.5,97.5v-1.8c-1.5-0.6-3.4-1-5.7-1c-3.7,0-5.9,1.6-5.9,4.3 v0.1c0,2.5,2.1,3.9,4.9,3.9C399.6,103.1,402.5,100.8,402.5,97.5z"></path> <path class="st0" d="M413.1,93.9L413.1,93.9c0-8.7,5.6-13.6,11.6-13.6c4.1,0,6.7,2.1,8.5,4.6v-14h5.7v36h-5.7v-4.3 c-1.8,2.7-4.4,4.9-8.5,4.9C418.8,107.4,413.1,102.5,413.1,93.9z M433.3,93.9L433.3,93.9c0-5.1-3.4-8.4-7.2-8.4 c-3.9,0-7.2,3.2-7.2,8.3v0.1c0,5,3.3,8.3,7.2,8.3C429.9,102.2,433.3,98.9,433.3,93.9z"></path> <path class="st0" d="M444.2,94L444.2,94c0-7.5,5.5-13.7,13-13.7c4.7,0,7.6,1.8,10,4.5l-3.6,4c-1.7-1.9-3.6-3.3-6.4-3.3 c-4.2,0-7.2,3.7-7.2,8.3v0.1c0,4.6,3.1,8.3,7.5,8.3c2.7,0,4.6-1.3,6.5-3.2l3.5,3.5c-2.5,2.9-5.3,4.9-10.2,4.9 C449.7,107.5,444.2,101.4,444.2,94z"></path> <path class="st0" d="M470.1,94L470.1,94c0-7.5,5.7-13.7,13.3-13.7c7.7,0,13.3,6.1,13.3,13.5v0.1c0,7.4-5.7,13.5-13.4,13.5 C475.7,107.5,470.1,101.4,470.1,94z M491,94L491,94c0-4.7-3.2-8.5-7.7-8.5c-4.6,0-7.5,3.7-7.5,8.3v0.1c0,4.5,3.2,8.3,7.6,8.3 C488,102.2,491,98.5,491,94z"></path> <path class="st0" d="M502,80.9h5.8v3.9c1.6-2.3,3.8-4.5,7.6-4.5c3.6,0,6.1,1.8,7.5,4.6c2-2.8,4.6-4.6,8.4-4.6 c5.4,0,8.7,3.6,8.7,9.9v16.6h-5.7V92.1c0-4.1-1.8-6.4-5.1-6.4c-3.1,0-5.3,2.3-5.3,6.5v14.7h-5.7V92c0-4-1.9-6.3-5.1-6.3 c-3.2,0-5.3,2.5-5.3,6.5v14.7H502V80.9z"></path> <path class="st0" d="M253.6,133.2L253.6,133.2c0-9.9,7-17.9,16.7-17.9c6,0,9.6,2.2,12.9,5.5l-2.6,2.9c-2.8-2.8-5.9-4.7-10.4-4.7 c-7.3,0-12.8,6.2-12.8,14.1v0.1c0,8,5.5,14.2,12.8,14.2c4.5,0,7.5-1.8,10.7-5l2.5,2.5c-3.5,3.6-7.2,6.1-13.2,6.1 C260.7,150.9,253.6,143.1,253.6,133.2z"></path> <path class="st0" d="M287.1,137.7L287.1,137.7c0-7.3,5.4-13.4,12.8-13.4c7.3,0,12.7,6,12.7,13.2v0.1c0,7.2-5.4,13.3-12.8,13.3 C292.4,150.9,287.1,144.9,287.1,137.7z M308.8,137.7L308.8,137.7c0-5.6-3.9-10-9.1-10c-5.3,0-8.9,4.5-8.9,9.9v0.1 c0,5.5,3.9,9.9,9,9.9C305.2,147.5,308.8,143.1,308.8,137.7z"></path> <path class="st0" d="M318.7,124.9h3.6v4.3c1.6-2.5,3.8-4.8,7.9-4.8c4,0,6.5,2.2,7.8,5.1c1.8-2.8,4.4-5.1,8.6-5.1 c5.6,0,9.1,3.9,9.1,10.2v15.8h-3.6v-14.9c0-4.9-2.4-7.7-6.3-7.7c-3.7,0-6.8,2.9-6.8,7.9v14.7h-3.6v-15c0-4.8-2.4-7.6-6.3-7.6 c-3.9,0-6.8,3.3-6.8,8v14.5h-3.6V124.9z"></path> <path class="st0" d="M363,124.9h3.6v5.1c2-3.1,4.9-5.7,9.4-5.7c5.9,0,11.7,4.8,11.7,13.2v0.1c0,8.3-5.8,13.2-11.7,13.2 c-4.5,0-7.5-2.6-9.4-5.4v12.8H363V124.9z M384,137.7L384,137.7c0-6.1-4-9.9-8.6-9.9c-4.5,0-8.8,4-8.8,9.8v0.1 c0,5.9,4.3,9.8,8.8,9.8C380.1,147.5,384,143.8,384,137.7z"></path> <path class="st0" d="M392.1,143L392.1,143c0-5.5,4.3-8.3,10.4-8.3c3.1,0,5.3,0.4,7.5,1.1v-0.9c0-4.6-2.7-6.9-7.3-6.9 c-2.9,0-5.2,0.8-7.4,1.9l-1.1-3.1c2.7-1.3,5.3-2.1,8.9-2.1c3.5,0,6.1,0.9,7.9,2.8c1.7,1.7,2.5,4.2,2.5,7.4v15.6h-3.5v-3.8 c-1.7,2.3-4.5,4.4-8.8,4.4C396.7,150.9,392.1,148.2,392.1,143z M410.1,141v-2.5c-1.8-0.5-4.2-1.1-7.2-1.1c-4.6,0-7.1,2.1-7.1,5.3 v0.1c0,3.2,2.8,5.1,6.1,5.1C406.5,147.9,410.1,145,410.1,141z"></path> <path class="st0" d="M420.9,124.9h3.6v4.4c1.6-2.8,4.2-5,8.4-5c5.9,0,9.4,4.1,9.4,10.2v15.8h-3.6v-14.9c0-4.7-2.5-7.7-6.8-7.7 c-4.2,0-7.3,3.2-7.3,8v14.6h-3.6V124.9z"></path> <path class="st0" d="M467.1,124.9h3.9l-10.3,26.3c-2.1,5.3-4.4,7.2-8.1,7.2c-2,0-3.5-0.4-5.2-1.3l1.2-3c1.2,0.6,2.3,0.9,3.8,0.9 c2.2,0,3.5-1.2,5-4.8l-11.1-25.4h4l8.9,21.2L467.1,124.9z"></path> </g> <path d="M199.7,175.9h-4.6v19.4h4.6v-5.7V175.9z M199.7,167.9h-4.6v4.3h4.6v-2.4V167.9z M178.4,197.1c0-0.8,0.8-2.2,3.3-2.2 c4.4,0,5.8,1.3,5.8,2.2c0,0.7-1,2.2-4,2.2C179.7,199.3,178.4,198.6,178.4,197.1 M179.2,182.1c0-1.8,1.4-3.2,3.3-3.2 c1.7,0,3.1,1.4,3.1,3.2c0,1.8-1.4,3.2-3.1,3.2C180.6,185.3,179.2,183.9,179.2,182.1 M174.2,197.7c0,3.1,3.4,4.6,8.6,4.6 c6.1,0,8.9-3,8.9-5.7c0-7.8-12.7-3.5-12.7-6.6c0-1.1,1.6-1.2,3.6-1.2c4.8,0,7.3-2.6,7.3-6.3c0-1.5-0.4-2.6-1-3.4 c0.7-0.4,1.9-0.4,3-0.4v-3.1c-2.2-0.1-3.6,0.5-4.5,1.7c-1.2-1-3.1-1.7-4.7-1.7c-5,0-7.6,3.4-7.6,6.8c0,2.4,1.3,3.8,2.8,5.1 c-0.8,0.3-3,1.7-3,3.5c0,2.1,2,2.6,2.8,3.1v0.1C176,194.1,174.2,195.3,174.2,197.7 M160.7,185.5c0-4.3,1.2-6.3,3.8-6.3 c2.6,0,3.8,2,3.8,6.3c0,4.3-1.2,6.3-3.8,6.3C162,191.9,160.7,189.9,160.7,185.5 M156.1,185.5c0,6.1,3.1,10.1,8.4,10.1 c5.2,0,8.4-3.9,8.4-10.1c0-6.2-3.1-10.1-8.4-10.1C159.3,175.5,156.1,179.4,156.1,185.5 M152.4,168.3h-4.6v26.9h4.6v-6.8V168.3z M132,185.5c0-4.3,1.2-6.3,3.8-6.3c2.6,0,3.8,2,3.8,6.3c0,4.3-1.2,6.3-3.8,6.3C133.2,191.9,132,189.9,132,185.5 M127.4,185.5 c0,6.1,3.1,10.1,8.4,10.1c5.2,0,8.4-3.9,8.4-10.1c0-6.2-3.1-10.1-8.4-10.1C130.5,175.5,127.4,179.4,127.4,185.5 M112.5,175.9h-4.2 v19.4h4.6v-14c0.8-0.9,2.3-2,4.3-2c1.6,0,2.4,0.8,2.4,3.5v12.6h4.6V182c0-4-1.8-6.5-5.7-6.5c-2.3,0-4.2,1.3-5.9,2.5V175.9z M92.3,168.3h-4.6v26.9h4.6v-14c0.8-0.9,2.3-2,4.3-2c1.5,0,2.4,0.8,2.4,3.5v12.6h4.6V182c0-4-1.9-6.5-5.7-6.5 c-2.2,0-4.1,1.3-5.5,2.5V168.3z M68.3,185.5c0,6.1,3.1,10.1,8.3,10.1c3.5,0,5.9-1.4,7.7-4.8l-3.5-2c-0.9,1.7-2.1,3.1-4.1,3.1 c-2.7,0-3.9-2-3.9-6.3c0-4.3,1.2-6.3,3.8-6.3c2.2,0,3,1.3,3.8,3l3.8-1.5c-1.1-3.2-4-5.2-7.6-5.2C71.4,175.5,68.3,179.4,68.3,185.5 M53.8,183.2c0.1-2.7,1.5-4.2,3.7-4.2c2.2,0,3.6,1.6,3.7,4.2H53.8z M49.3,185.5c0,6.1,3.1,10.1,8.1,10.1c3.7,0,6.3-1.2,8.1-4 l-3.3-2.1c-1.1,1.3-2.1,2.3-4.3,2.3c-2.1,0-3.9-1.6-4-5.6h11.6v-1.9c0-4.7-2.8-8.9-7.9-8.9C52.4,175.5,49.3,179.4,49.3,185.5 M38.7,169.4v6.4H36v3.7h2.7v11.6c0,2.8,1.3,4.5,4.7,4.5c1.3,0,2.4-0.2,3.6-0.3v-3.8c-0.7,0.1-1.4,0.4-2.1,0.4 c-1.1,0-1.7-0.3-1.7-1.3v-11H47v-3.7h-3.8v-6.4H38.7z M96.3,36C61.5,36,41,60.6,41,94.6c0,32.7,19.8,56.4,53.4,56.4 c8.6,0,18.2-1.8,26.4-6.2c-6.3-5.4-10.9-13.3-11.3-24.2c-2.9,2.8-7.1,4.2-12,4.2c-16.1,0-20.6-12.1-20.6-32.9 c0-20.5,4.9-31.6,20.6-31.6c9.8,0,16.8,5.3,16.8,15.3h30.4C142.4,49.4,121.6,36,96.3,36 M179.6,100.2c0,9.3-0.2,14.3-4.4,20.7 c-3.7,5.7-9.6,9.1-16.1,9.1c-8.9,0-16.4-4.1-16.4-13.8c0-14.3,20.9-19.3,36.8-20.3V100.2z M182.6,148.8h31 c-1.7-5.4-2.2-10.9-2.2-16.5V74.7c0-14-2.6-21.8-10.1-28.6C194.3,39.6,182.7,36,167,36c-13.6,0-25.3,2.9-34.2,8.4 c6.8,5.8,11.7,13.5,14,22.7c3-4.7,8.9-6.8,16.5-6.8c12.5,0,16.2,8.7,16.3,16.1l0.1,3.5C145,81.6,112.3,88,113,119.7 c0.4,22.2,20.5,31.3,34.3,31.2c16,0,25-4.3,33.8-15.2C181.3,140.4,181.8,145.2,182.6,148.8 M215.4,183.2H208 c0.1-2.7,1.5-4.2,3.7-4.2C213.9,178.9,215.3,180.5,215.4,183.2 M219.6,184.4c0-4.7-2.8-8.9-7.9-8.9c-5.2,0-8.4,3.9-8.4,10.1 c0,6.1,3.1,10.1,8.1,10.1c3.7,0,6.3-1.2,8.1-4l-3.3-2.1c-1.2,1.3-2.2,2.3-4.3,2.3c-2.1,0-3.9-1.6-4-5.6h11.6V184.4z M225.2,142.5 h-0.8v-1.9h0.9c0.7,0,1.2,0.3,1.2,1C226.4,142.2,225.9,142.5,225.2,142.5 M228.1,145.9l-1.9-2.7c0.8-0.3,1.3-0.9,1.3-1.8 c0-1.2-0.9-1.9-2.3-1.9h-2v6.5h1.1v-2.7h0.6l2,2.8L228.1,145.9z M230.2,143c0,3.3-2.2,5.2-5,5.2c-2.7,0-4.9-1.9-4.9-5.2 c0-3.4,2.2-5.2,4.9-5.2C228,137.8,230.2,139.7,230.2,143 M231,143c0-3.5-2.4-5.9-5.7-5.9c-3.4,0-5.8,2.4-5.8,5.9 c0,3.5,2.4,5.9,5.8,5.9C228.6,148.9,231,146.5,231,143 M232.7,181l2.9-2.5c-1.7-2-4.2-3-6.8-3c-3.3,0-6.4,2-6.4,5.6 c0,6.8,9.6,5.6,9.6,8.9c0,1.3-1.1,2.2-2.7,2.2c-2,0-3.4-1.3-4.5-2.8l-3.1,2.3c1.7,2.5,4.2,3.9,7.3,3.9c4,0,7.1-1.8,7.1-5.8 c0-7.1-9.6-5.7-9.6-9c0-1.2,0.8-1.9,2.6-1.9C230.6,178.9,231.8,180,232.7,181"></path> </g> </svg> 